<svg xmlns="http://www.w3.org/2000/svg" viewBox="0 0 424 211">
  <defs>
    <style>
      .cls-1, .cls-4, .cls-5, .cls-6 {
        fill: #243752;
      }

      .cls-2 {
        fill: #0d80b2;
      }

      .cls-3 {
        fill: #f2ce45;
      }

      .cls-4 {
        font-size: 64px;
      }

      .cls-4, .cls-5, .cls-6, .cls-7 {
        stroke: #243752;
        stroke-miterlimit: 10;
      }

      .cls-4, .cls-6 {
        font-family: Helvetica, Helvetica;
      }

      .cls-6 {
        font-size: 50px;
      }

      .cls-7 {
        fill: none;
        stroke-width: 2px;
      }
    </style>
  </defs>
  <title>Asset 1</title>
  <g id="Layer_2" data-name="Layer 2">
    <g id="logo_name_horizontal">
      <g id="logo_text">
        <g id="a">
          <polygon id="a_shape_top" class="cls-1" points="122.5 109.5 179.5 109.5 150.5 43.5 122.5 109.5"/>
          <polygon id="a_shape_base" class="cls-2" points="119.5 114.5 143.5 132.5 98.5 162.5 119.5 114.5"/>
          <polygon id="a_shape_base-2" data-name="a_shape_base" class="cls-3" points="181.5 114.5 201.5 162.5 128.5 114.5 181.5 114.5"/>
        </g>
        <g id="s">
          <polygon id="s_shape_middle" class="cls-2" points="61.5 44.5 107.5 128.5 93.5 161.5 45.5 73.5 61.5 44.5"/>
          <polygon id="s_shape_top" class="cls-2" points="67.5 44.5 83.5 73.5 119.5 73.5 132.5 44.5 67.5 44.5"/>
          <polygon id="s_shape_bottom" class="cls-2" points="71.5 132.5 87.5 162.5 25.5 162.5 41.5 132.5 71.5 132.5"/>
        </g>
        <g id="textLogo">
          <text class="cls-4" transform="translate(211.29 94.44) scale(0.79 1)">SHAPE</text>
          <line id="separator_line" class="cls-5" x1="211.5" y1="109.5" x2="385" y2="110"/>
          <text class="cls-6" transform="translate(211.29 162.14) scale(0.64 1)">AMBITIONS</text>
        </g>
      </g>
      <g id="border">
        <rect id="border-2" data-name="border" class="cls-7" x="1" y="1" width="422" height="209"/>
      </g>
    </g>
  </g>
</svg>
